<?xml version="1.0" encoding="utf-8"?>
<!DOCTYPE svg PUBLIC "-//W3C//DTD SVG 1.0//EN" "http://www.w3.org/TR/2001/REC-SVG-20010904/DTD/svg10.dtd">
<svg version="1.0" xmlns="http://www.w3.org/2000/svg" width="500px" height="223px" viewBox="0 0 500 223" preserveAspectRatio="xMidYMid meet">
 <g fill="#281b0c">
  <path d="M154.7 205.9 c-5.3 -1.3 -12.8 -5.2 -15.9 -8.6 -3.4 -3.6 -7.6 -12.5 -8.4 -18 -0.3 -2.4 -0.9 -4.3 -1.3 -4.3 -0.3 0 -1.5 1.5 -2.4 3.3 -4.6 8.5 -17.4 18.2 -28.6 21.8 -8.4 2.7 -23.9 3.6 -31.2 1.9 -8.5 -2 -15.5 -5.9 -21 -11.7 -19.4 -20.5 -13.5 -54.8 11.5 -66.7 18.1 -8.7 32.6 0.1 31.4 19 -0.4 5.8 -0.8 7 -3.2 9 -1.8 1.6 -4 2.4 -6.6 2.4 -5.2 0 -6.8 0.8 -8.5 4.1 -2.1 3.9 -1.9 5.6 1 8.4 1.9 2 3.4 2.5 7.5 2.5 2.8 0 6.4 -0.7 7.9 -1.4 7.8 -4.1 12.2 -14.2 10.2 -23.6 -1.4 -6.7 -3.6 -10.8 -13.6 -25.6 -11.8 -17.5 -14.8 -26.8 -12.6 -38.9 4.1 -22 24.4 -37.6 47.5 -36.3 13 0.7 22.7 7.1 27.8 18.3 3.1 7 3.2 19.9 0.1 26.7 -1.6 3.6 -1.8 4.8 -0.9 4.8 0.8 0 1.9 -0.6 2.5 -1.4 1.6 -1.9 9.7 -5.2 14.7 -6.1 8.8 -1.4 17.6 3.6 21.1 12 1 2.5 2 4.5 2.3 4.5 0.6 0 2.7 -5.2 7.7 -19.5 3.4 -9.8 3.4 -10.1 1.8 -13.2 -3.7 -6.8 -1.5 -11.7 7.2 -15.9 11 -5.4 22.3 -4.2 25.8 2.7 3 5.7 3 16.3 0 24.1 -0.5 1.3 -0.2 1.5 1.4 1.1 3.9 -1 9.1 0.7 12.6 4.3 l3.5 3.4 4.9 -3.5 c12.1 -8.7 26.1 -8.3 31.1 0.9 0.7 1.4 1.6 2.6 2 2.6 0.3 0 1.9 -4 3.5 -8.9 l2.8 -8.9 -3.1 -4.8 c-4.5 -6.8 -4.3 -10.6 0.7 -15.5 10.2 -9.6 29.1 -10.9 34.7 -2.4 3 4.6 3 16.3 0 23.6 -0.6 1.3 0.1 1.7 3.3 2.2 5.3 0.7 8.6 3.3 11.2 8.7 1.2 2.5 2.4 4.7 2.5 4.9 0.2 0.2 2.3 -1.8 4.8 -4.5 9.1 -10.1 21.9 -15.1 31.3 -12.2 2.7 0.9 6.7 1.3 9 1.1 2.4 -0.3 5.7 0 7.5 0.6 2.6 0.9 3.4 0.9 4 -0.4 2.6 -4.6 13.8 -6 19.6 -2.5 l3.3 2 4.2 -2.8 c13.1 -8.9 26.5 -5.8 30.7 7.2 1.7 5.3 0.8 17.7 -1.8 24.9 -2 5.7 -2 5.7 -0.1 5.7 8.7 0 11.8 12.9 5.9 24.8 -10.1 20 -34.8 24.3 -42.5 7.3 -1 -2.3 -2.1 -4.1 -2.5 -4.1 -0.4 0 -1 2.3 -1.3 5.1 -0.4 2.8 -1.1 5.7 -1.7 6.4 -0.8 1 0 1.9 3.4 3.9 10 5.9 11.9 23.5 3.2 30.4 -5.9 4.6 -13.1 3.3 -17.1 -3.1 -4 -6.4 -20.8 -8.7 -48.9 -6.9 -34.4 2.3 -67.4 8.5 -108.1 20.4 -44.6 13 -58 15.9 -73.9 15.7 -5.6 -0.1 -11.8 -0.5 -13.9 -1z m24.2 -15.5 c12.8 -1.8 18.5 -3.3 54.7 -13.4 51.9 -14.7 72.5 -18.5 112.6 -21.1 32.9 -2 58 1.8 60.4 9.3 0.6 1.8 0.7 1.9 2.5 0.2 2.6 -2.4 2.4 -3.8 -1.1 -6.7 -4.1 -3.5 -13.8 -5.5 -33.9 -6.9 -38.6 -2.7 -96.6 4.1 -159.4 18.6 -34.4 8 -34.9 8.1 -52.2 8.1 -13 0 -16.6 -0.3 -19.2 -1.7 -3.1 -1.6 -3.3 -1.6 -3.3 0.1 0 5.4 8.7 12.2 18 14 6.7 1.3 9.2 1.3 20.9 -0.5z m-93.6 -3.8 c17.6 -3.4 31 -15 35.9 -30.9 3.8 -12.6 1.1 -24.2 -9 -39 -3 -4.5 -7.3 -10.8 -9.5 -14 -5.8 -8.6 -7.7 -14.3 -7.7 -23.7 0 -11.7 2.7 -17.3 10.2 -21.1 4.1 -2.1 14.8 -2.6 19.2 -0.9 6 2.2 7.7 15.7 3.1 24.4 -2.7 5.2 -2.3 5.6 2.5 2.4 8.3 -5.7 10 -14.1 4.5 -21.9 -13.1 -18.6 -45.7 -8.1 -53.6 17.3 -2.8 9 -0.8 15.1 10.1 30.3 13.4 18.6 16.4 26.2 15.8 40 -0.6 13.6 -5.6 22.2 -15.3 26.6 -5.3 2.5 -19.2 2.6 -24.2 0.3 -5.9 -2.8 -8.7 -7.6 -9.1 -15.5 -0.6 -9.4 0.3 -13.3 4.1 -17.6 3.5 -4 8.1 -6.3 12.7 -6.3 4.7 0 3.5 -4.1 -2.1 -7 -6.2 -3.4 -20.5 6.7 -26 18.3 -8 16.9 1.4 34 21.1 38.3 7.3 1.6 8.6 1.6 17.3 0z m92 -17.7 c4.8 -0.7 8.7 -1.6 8.7 -2 0 -0.5 -0.8 -0.9 -1.7 -0.9 -3 0 -8.2 -3.8 -8.9 -6.5 l-0.6 -2.5 -4.5 4.1 c-2.4 2.2 -6.4 5 -8.9 6 -2.4 1.1 -4.4 2.4 -4.4 2.8 0 1 7.9 0.6 20.3 -1z m31.6 -6.6 c0.3 -0.2 -0.9 -1.8 -2.7 -3.5 -1.7 -1.8 -3.3 -3 -3.5 -2.7 -0.3 0.2 -0.7 2.1 -1.1 4.2 l-0.7 3.8 3.8 -0.7 c2.1 -0.4 4 -0.8 4.2 -1.1z m-55.2 -10.4 c8.4 -4.1 19.1 -19.8 20.9 -30.6 0.5 -3 1.2 -4.4 2.7 -4.9 1.1 -0.3 1.5 -0.9 1 -1.3 -0.6 -0.3 -1.3 -2.8 -1.6 -5.4 -1.3 -9.8 -6.9 -16.4 -12.7 -15 -19.2 4.6 -35.8 34.7 -27.9 50.9 2.2 4.7 7 8.4 10.8 8.4 1.4 0 4.4 -0.9 6.8 -2.1z m35.8 -3.1 c0.1 -0.2 1.2 -3.5 2.4 -7.5 1.2 -4 3 -9.2 4.1 -11.7 1.7 -4.2 2.2 -4.6 5.3 -4.6 3.4 0 3.5 0.1 4.1 5.1 1 7.1 3.3 12.5 6.8 15.4 3.9 3.3 6.6 3.2 10.8 -0.5 l3.5 -2.9 -3.1 -0.1 c-5.7 0 -9.7 -7.2 -11 -19.7 l-0.7 -6.5 11.7 -11.7 c6.4 -6.4 11.4 -12 11 -12.4 -2 -2 -5.2 0.3 -15.1 11.2 -9.4 10.4 -11.2 11.9 -14 12 -3.1 0.1 -3.3 -0.1 -3.3 -3.1 0 -1.9 3.7 -12.1 8.6 -23.6 4.7 -11.2 8.8 -21.8 9.1 -23.7 0.5 -2.9 0.2 -3.6 -1.9 -4.6 -2 -0.9 -3.4 -0.7 -7.4 1 l-4.9 2.1 0.3 6.5 c0.3 5.4 -0.3 8.2 -3.8 18.7 -5 14.4 -8.3 21.3 -11 23 -1.3 0.9 -2 2.4 -2 4.5 0 1.7 -1.8 9.7 -4 17.8 -4.5 16.3 -4.4 18 1.2 16.4 1.7 -0.4 3.2 -1 3.3 -1.1z m63.8 -5.2 c1.8 -0.8 4.1 -2.1 5.2 -3 2 -1.7 2 -1.7 -0.2 -0.7 -3.3 1.6 -9.9 1.3 -11.7 -0.5 -2.4 -2.3 -2.1 -14.5 0.5 -23 3.2 -10.5 4.4 -12.4 7.9 -12.4 2.9 0 3 -0.2 3 -4.7 0 -3.4 0.6 -5.3 2.3 -7.1 1.9 -2.2 1.7 -2.2 -2.4 0.6 -5.8 3.9 -9.7 8.4 -14.3 16.2 -9.1 15.5 -9.8 27.7 -2.1 33.8 3.2 2.5 7.2 2.8 11.8 0.8z m49.7 -4.5 c10.6 -4 18.8 -13.6 24.1 -28.3 3.5 -9.6 4.1 -17.7 1.6 -22.5 -3 -5.7 -7.3 -6.4 -12.7 -2.3 l-2.5 2 2.7 0 c4.1 0 5.8 2.4 5.8 8.3 -0.1 12.9 -6 28.7 -13.6 36.3 -4.1 4.1 -4.7 4.4 -9.8 4.4 -7.1 0 -8.1 -1.5 -7.3 -11.9 0.6 -9.1 4.2 -18.8 10.4 -27.8 2.9 -4.3 3.8 -6.3 2.8 -6.3 -2.7 0 -1.6 -5.2 4 -19 3 -7.4 5.5 -14.4 5.5 -15.5 0 -4.5 -5.1 -5.9 -11.2 -2.9 l-3.3 1.5 -0.1 10.2 c0 9.2 -0.4 11.4 -4.3 23.2 -2.4 7.2 -5.1 13.9 -6.2 15.1 -1.1 1.2 -1.9 3.5 -1.9 5.5 0 1.9 -0.9 6.6 -2 10.4 -3.1 10.9 -2.6 14.7 2.8 19.2 3.4 2.9 8.4 3 15.2 0.4z m48.4 -5.9 l4 -2.7 -4.5 -0.3 c-2.6 -0.2 -4.9 -1 -5.6 -1.9 -4.7 -6.1 3.5 -30.9 13.6 -41.4 4.5 -4.6 5 -4.9 9.9 -4.9 3.8 0 5.4 0.5 6.2 1.8 0.7 1 1 1.1 0.7 0.3 -0.2 -0.8 -1.5 -2.3 -2.8 -3.3 -2.3 -1.7 -2.9 -1.8 -6.5 -0.5 -12.2 4.2 -22.9 17.1 -29 35.1 -2.8 8 -3 12.5 -0.9 16.6 3 5.8 7.8 6.2 14.9 1.2z m25.7 -1.4 l3.1 -2.3 -2.9 -0.5 c-5.8 -1 -4.1 -9.7 6.7 -34 2.7 -6.3 5 -12 5 -12.7 0 -2.2 -1.8 -1.4 -4.2 1.7 -1.6 2.3 -3 3 -5.5 3 -3 0 -3.3 0.3 -3.3 3 0 4.7 -5.6 21 -9.4 27.3 -3.1 5.1 -3.3 5.7 -1.5 5.7 1.5 0 1.9 0.7 1.9 3.3 0 4 2.4 7.7 5.1 7.7 1.1 0 3.4 -1 5 -2.2z m-107.2 -5.6 c3.9 -8 7.1 -18.3 7.1 -23.4 0 -5 -2.6 -10.4 -6.2 -13.1 -2.1 -1.6 -3.1 -1.7 -5.4 -0.9 -2.8 1 -2.8 1 1.3 1.1 5.9 0.1 7.5 2.7 7.1 11.7 l-0.3 6.9 -5 0.6 -5 0.6 4.4 0.1 4.4 0.2 -0.5 4.9 c-0.3 2.6 -1.9 7.8 -3.6 11.5 -3.8 8 -2.3 7.8 1.7 -0.2z m126.7 5.8 c2.9 0 3.4 -0.4 3.4 -2.2 0 -6.9 6.4 -24.6 14.8 -41 0.2 -0.5 -0.3 -0.8 -1.2 -0.8 -1.2 0 -1.6 -1.1 -1.6 -4.5 0 -3.5 -0.5 -4.7 -2.1 -5.5 -3.3 -1.8 -4.6 -0.5 -5.1 4.8 -0.3 2.7 -3.1 12.5 -6.3 21.7 -4.5 12.8 -6.3 16.9 -7.9 17.5 -1.2 0.5 -1.5 0.9 -0.7 0.9 1.1 0.1 1.2 1.2 0.8 5.2 -0.5 4.3 -0.4 5 0.9 4.5 0.9 -0.3 3.1 -0.6 5 -0.6z m39.7 -0.6 c1.8 -0.9 4 -2.4 5.1 -3.3 1.7 -1.5 1.6 -1.6 -2.5 -2.1 l-4.4 -0.5 -0.3 -6.6 c-0.2 -5.5 0.3 -8.2 3.4 -16.5 8.4 -23 8.5 -24.3 2.9 -28 -3 -2 -6 -1 -12.8 4 l-4.2 3.1 3.5 0.5 c3.5 0.5 3.5 0.6 3.8 5.9 0.3 4.3 -0.6 8 -4.4 19 -5.6 16.4 -6 20.3 -2.1 23.7 3.3 2.8 7.5 3.1 12 0.8z m-304.5 -21.1 c1.2 -2.2 3.3 -5.5 4.8 -7.2 1.4 -1.8 2.4 -3.4 2.2 -3.7 -0.3 -0.2 -2.1 0.3 -4.1 1.1 -4.7 1.9 -12 1.9 -15.8 0 -4 -2.1 -6.9 -7.1 -6.9 -12.1 0 -3.2 0.6 -4.6 2.9 -6.8 5.9 -5.6 6.7 -12.5 1.3 -11.1 -3.8 0.9 -8 5.3 -9.4 9.6 -1.6 5.5 0.5 10.5 11.4 26.8 l9.3 14 1.1 -3.3 c0.7 -1.7 2.1 -5 3.2 -7.3z"/>
  <path d="M144.5 146.9 c-0.4 -0.6 -0.9 -3.6 -1.2 -6.7 -0.6 -6.7 1.6 -17 5.4 -25.4 2.4 -5.4 2.8 -5.8 5.9 -5.8 3.2 0 3.4 -0.2 3.4 -3.3 0 -5.6 2.3 -7.7 8.4 -7.7 6.5 0 6.6 0.2 6.6 11.2 l0 8 -5.6 -0.4 c-5 -0.4 -5.4 -0.3 -3.3 0.8 1.3 0.7 3.4 1.3 4.7 1.4 3.7 0 3 6.2 -1.8 15.8 -5.4 10.8 -8.4 13.2 -16 13.2 -3.2 0 -6.2 -0.5 -6.5 -1.1z"/>
 </g>
 <g fill="#ffc526">
  <path d="M155.1 193.9 c-13.6 -2.7 -21.2 -11.9 -18.2 -21.9 l1.2 -4 3.7 2.9 c5.9 4.6 10 5.4 23.6 4.8 12.1 -0.6 20 -2 50.1 -9.1 72 -17 147.8 -23.1 185.5 -15 8.5 1.9 14 6.1 14 10.8 0 3 -4.4 8.1 -7.8 9.1 -1.9 0.5 -2.4 0.1 -3.3 -2.4 -0.6 -1.6 -2.1 -3.6 -3.3 -4.4 -7.5 -4.9 -28.9 -7.2 -52.5 -5.7 -39 2.5 -60.2 6.5 -111.5 21 -36.2 10.1 -41.9 11.6 -54.7 13.4 -11.5 1.7 -19.9 1.9 -26.8 0.5z"/>
  <path d="M65 189.6 c-15.3 -3.3 -24.3 -14.1 -24.4 -29.6 -0.1 -6.4 0.4 -8.5 3.1 -14.2 5.3 -11.2 14.5 -18.4 24.8 -19.5 4 -0.4 6 -0.1 8.3 1.3 3.4 1.9 5.4 5.7 4.8 8.9 -0.3 1.1 -0.5 2.6 -0.5 3.3 -0.1 1 -1 1.2 -3 0.7 -6.2 -1.3 -15.3 5.8 -16.7 13 -2.3 12.4 5.3 21.5 17.8 21.5 17.7 -0.1 29.2 -19.1 22.8 -38 -2.4 -7.3 -5.6 -12.9 -14 -24.5 -11.2 -15.6 -13.7 -24 -10.5 -35.1 3.3 -11.6 10.5 -19.8 22.1 -25.1 7.8 -3.5 18.9 -4.3 26.4 -1.8 17.6 5.9 21 29.3 5.3 37.4 -3.1 1.6 -11.8 1.4 -13.2 -0.3 -0.9 -1.1 -0.6 -1.8 1.8 -3.5 3.5 -2.5 7.1 -9.5 7.1 -14 0 -9.6 -9.2 -14.1 -18.9 -9.1 -7.3 3.7 -10.6 10.4 -9.9 19.9 0.5 7.3 3.6 13.7 12.9 26.6 11.7 16.4 14.9 24.5 14.9 37.6 0 22.6 -14.8 40.1 -37.7 44.5 -8.8 1.7 -15.7 1.7 -23.3 0z"/>
  <path d="M143.5 157.1 c-8.6 -2.1 -13 -9.3 -12.9 -21.1 0.3 -21.7 16.4 -43 33.8 -44.6 8.8 -0.9 14 4.4 15.3 15.6 0.3 2.8 1 5 1.5 5 2.5 0 9 -5.5 10.9 -9.2 3.4 -6.6 10.9 -28.9 10.9 -32.3 0 -1.7 -0.7 -4.1 -1.6 -5.3 -2 -2.9 -1.2 -3.9 5 -6.8 8.8 -4.1 17.6 -2.4 17.6 3.4 0 3.5 -3.1 12.2 -11 30.8 -4.4 10.3 -8 18.9 -8 19.1 0 0.1 4.8 -4.9 10.6 -11.3 12.5 -13.5 15 -15.2 19.4 -12.9 1.6 0.8 3.5 2.5 4.1 3.6 1 2 -0.1 3.3 -11.5 14.8 l-12.6 12.7 0.9 5.1 c1.3 6.8 3.3 11.3 6 13.8 1.9 1.6 2.6 1.7 5.3 0.7 3.1 -1.1 4.7 -0.5 4.8 1.9 0 1.8 -6.3 8.8 -9.3 10.2 -4.7 2.3 -7.8 2.1 -11.7 -0.6 -4.5 -3 -6.8 -7.2 -8.4 -15.4 l-1.3 -6.8 -2.2 5 c-1.2 2.7 -3.2 8.2 -4.4 12.2 -2 6.9 -2.3 7.4 -5.7 8.3 -7.8 2.2 -11 0.9 -11 -4.7 0 -2.7 5.7 -25.8 7.6 -30.8 0.4 -1.1 -0.4 -0.9 -3.4 0.8 -3.4 1.8 -4.1 2.8 -4.7 6.2 -0.9 6.1 -6.9 17.6 -12 23.3 -6.6 7.3 -15.2 10.9 -22 9.3z m13.3 -14.6 c2.7 -2.3 9.1 -13.3 10.7 -18.2 0.5 -1.9 0.2 -2.3 -1.5 -2.3 -3.6 0 -7.9 -2.9 -9.8 -6.6 l-1.8 -3.6 -2.7 5.9 c-4.8 10.7 -6.5 22.3 -4 26.6 0.9 1.6 6.3 0.6 9.1 -1.8z m13.2 -33.4 c0 -6.5 -0.7 -8.1 -3.6 -8.1 -5.8 0 -6.8 8.9 -1.4 11.7 4.3 2.2 5 1.7 5 -3.6z"/>
  <path d="M241.1 147.2 c-5.7 -2.9 -7.5 -6.3 -7.9 -15 -0.5 -9.3 1.7 -16.7 8.1 -27.3 6.9 -11.6 17.7 -19.9 26.1 -19.9 7.4 0 11.6 4.9 12.5 14.4 l0.6 6.1 3.7 -3.5 c3.1 -3 4.3 -5.4 7.8 -16.5 6.3 -19.7 6.4 -27.5 0.5 -27.5 -4.5 0 -2.5 -2.2 6 -6.7 3.5 -1.8 6.6 -2.7 10.2 -2.7 10.7 -0.2 11.3 5.3 3 25.8 -3 7.5 -5.2 13.6 -4.8 13.6 0.4 0 1.8 -1.1 3 -2.4 5.5 -5.9 15.3 -7.5 19.6 -3.2 5.4 5.4 5.7 17.6 0.6 31.5 -7.2 19.8 -19.5 30.1 -35.6 30.1 -7.4 0 -10.7 -1.6 -13.1 -6.1 -2 -3.9 -1.8 -13.2 0.6 -21.3 1.1 -3.8 1.8 -7.1 1.7 -7.3 -0.2 -0.1 -1.3 0.4 -2.4 1.2 -1.3 0.9 -2.9 3.9 -3.8 7.2 -4.3 14.8 -13.8 26.8 -23.5 29.7 -6.8 2 -8.7 2 -12.9 -0.2z m15.6 -11.1 c2.2 -1.4 4.3 -4.4 7.2 -10.3 5 -10.4 5.8 -13 3.7 -12.2 -2.4 0.9 -8.4 -1.5 -10.5 -4.2 l-2 -2.5 -1.4 2.8 c-2.6 5 -5.7 16.4 -5.7 20.8 0 4.3 1.9 7.5 4.3 7.5 0.7 0 2.6 -0.9 4.4 -1.9z m48.7 -6.5 c5.4 -5.4 10.3 -15.4 12.3 -25.2 1.6 -8 1.2 -11.8 -1.3 -12.8 -4.4 -1.7 -12.3 7.1 -18 20.2 -7.9 18.2 -3.8 28.7 7 17.8z m-34.6 -27.9 c0.3 -4 -1.9 -8.7 -4 -8.7 -2 0 -5.8 4.2 -5.8 6.4 0 3 4 6.7 7 6.4 2.1 -0.3 2.5 -0.9 2.8 -4.1z"/>
  <path d="M336.7 139 c-9.8 -6.1 -3.8 -33.3 11.4 -51.2 8.1 -9.6 22.2 -14.5 28.2 -9.8 1.5 1.2 2.7 3.1 2.7 4.3 0 2 0.3 1.9 2.6 -1 2.1 -2.7 3.2 -3.3 6.4 -3.3 2.7 0 4.2 0.5 4.8 1.8 1.1 2.1 1.3 1.4 -6.3 19.2 -7.2 16.9 -9.9 24.5 -9 26 1.1 1.9 3.4 1 5.7 -2.1 1.3 -1.7 3.2 -3.5 4.4 -3.9 1.6 -0.6 3.4 -4.6 7.8 -17.4 3.2 -9.1 6.1 -18.9 6.5 -21.8 0.5 -4.5 1 -5.4 3.2 -6.2 2 -0.7 3.6 -0.4 6.5 1 3.6 1.8 3.9 2.2 3.8 6.1 l-0.1 4.2 4 -4.5 c5.4 -6.1 13 -10.4 18.5 -10.4 3.5 0 4.9 0.6 7.4 3.1 2.9 2.8 3 3.4 2.5 8.7 -0.3 3.2 -2.6 11.1 -5.3 18.2 -5.6 14.8 -6.5 22.3 -2.6 22.8 2.8 0.4 5.5 -1.8 8.9 -7.2 2.3 -3.5 2.6 -3.7 4.1 -2.3 2.3 2.3 0.2 8.3 -4.9 14.1 -7.2 8.2 -17.1 11.4 -23.9 7.9 -7.5 -3.9 -7.6 -10.9 -0.5 -31.5 6.1 -17.9 5.6 -22.3 -2 -15.7 -4.7 4.2 -12.5 20.3 -15.9 32.9 -1.4 5.2 -2.6 10.5 -2.6 11.8 0 1.5 -0.6 2.2 -1.9 2.2 -1 0 -4.6 0.3 -8.1 0.7 l-6.2 0.6 0.3 -5.2 0.4 -5.1 -2 2.7 c-6.5 9.1 -14.1 11.8 -19 6.8 -1.8 -1.7 -2.5 -3.5 -2.5 -6.2 l0 -3.7 -3 4 c-4.7 6.4 -10.2 9.7 -16.8 10.1 -3.1 0.2 -6.5 -0.1 -7.5 -0.7z m20.6 -16.4 c5.4 -5.5 9.8 -13.7 13.2 -24.8 2.9 -9.4 2.5 -12.8 -1.7 -12.8 -3.3 0 -11.1 8.8 -15.2 17.1 -9.5 19.6 -7.3 31.9 3.7 20.5z"/>
 </g>
</svg>